<mxfile host="app.diagrams.net" modified="2020-07-28T10:47:12.201Z" agent="5.0 (Windows NT 10.0; Win64; x64) AppleWebKit/537.36 (KHTML, like Gecko) Chrome/84.0.4147.89 Safari/537.36" etag="UNwsKXb3aZozMxjAFK9h" version="13.5.4" type="github">
  <diagram id="3qBRd1gVlwZAsoEKYXhL" name="Page-1">
    <mxGraphModel dx="1422" dy="794" grid="1" gridSize="10" guides="1" tooltips="1" connect="1" arrows="1" fold="1" page="1" pageScale="1" pageWidth="850" pageHeight="1100" background="none" math="0" shadow="1">
      <root>
        <mxCell id="0" />
        <mxCell id="1" parent="0" />
        <mxCell id="xJ2xehB1AI7LfLYREDJW-62" value="Alternative" style="shape=umlFrame;whiteSpace=wrap;html=1;" vertex="1" parent="1">
          <mxGeometry x="10" y="500" width="605" height="230" as="geometry" />
        </mxCell>
        <mxCell id="xJ2xehB1AI7LfLYREDJW-1" value="&lt;h1&gt;Sequence Diagram&lt;/h1&gt;&lt;p&gt;Lorem ipsum dolor sit amet, consectetur adipisicing elit, sed do eiusmod tempor incididunt ut labore et dolore magna aliqua.&lt;/p&gt;" style="text;html=1;strokeColor=none;fillColor=none;spacing=5;spacingTop=-20;whiteSpace=wrap;overflow=hidden;" vertex="1" parent="1">
          <mxGeometry x="40" y="40" width="760" height="120" as="geometry" />
        </mxCell>
        <mxCell id="xJ2xehB1AI7LfLYREDJW-2" value="Medical Receptionist" style="shape=umlActor;verticalLabelPosition=bottom;verticalAlign=top;html=1;outlineConnect=0;" vertex="1" parent="1">
          <mxGeometry x="110" y="210" width="30" height="60" as="geometry" />
        </mxCell>
        <mxCell id="xJ2xehB1AI7LfLYREDJW-3" value="" style="endArrow=none;dashed=1;html=1;" edge="1" parent="1">
          <mxGeometry width="50" height="50" relative="1" as="geometry">
            <mxPoint x="120" y="1096" as="sourcePoint" />
            <mxPoint x="120" y="300" as="targetPoint" />
          </mxGeometry>
        </mxCell>
        <mxCell id="xJ2xehB1AI7LfLYREDJW-4" value="P: PatientInfo&amp;nbsp;" style="whiteSpace=wrap;html=1;" vertex="1" parent="1">
          <mxGeometry x="280" y="210" width="120" height="60" as="geometry" />
        </mxCell>
        <mxCell id="xJ2xehB1AI7LfLYREDJW-5" value="" style="endArrow=none;dashed=1;html=1;" edge="1" parent="1">
          <mxGeometry width="50" height="50" relative="1" as="geometry">
            <mxPoint x="340" y="1092" as="sourcePoint" />
            <mxPoint x="340" y="300" as="targetPoint" />
          </mxGeometry>
        </mxCell>
        <mxCell id="xJ2xehB1AI7LfLYREDJW-6" value="" style="endArrow=classic;html=1;" edge="1" parent="1">
          <mxGeometry width="50" height="50" relative="1" as="geometry">
            <mxPoint x="120" y="350" as="sourcePoint" />
            <mxPoint x="340" y="350" as="targetPoint" />
          </mxGeometry>
        </mxCell>
        <mxCell id="xJ2xehB1AI7LfLYREDJW-9" value="ViewInfo(PID)" style="text;html=1;strokeColor=none;fillColor=none;align=center;verticalAlign=middle;whiteSpace=wrap;" vertex="1" parent="1">
          <mxGeometry x="210" y="360" width="40" height="20" as="geometry" />
        </mxCell>
        <mxCell id="xJ2xehB1AI7LfLYREDJW-11" value="Report PID ,RID" style="text;html=1;strokeColor=none;fillColor=none;align=center;verticalAlign=middle;whiteSpace=wrap;" vertex="1" parent="1">
          <mxGeometry x="390" y="380" width="140" height="20" as="geometry" />
        </mxCell>
        <mxCell id="xJ2xehB1AI7LfLYREDJW-12" value="" style="endArrow=none;dashed=1;html=1;" edge="1" parent="1">
          <mxGeometry width="50" height="50" relative="1" as="geometry">
            <mxPoint x="580" y="1092" as="sourcePoint" />
            <mxPoint x="580" y="300" as="targetPoint" />
          </mxGeometry>
        </mxCell>
        <mxCell id="xJ2xehB1AI7LfLYREDJW-13" value="DataBase" style="whiteSpace=wrap;html=1;" vertex="1" parent="1">
          <mxGeometry x="510" y="210" width="120" height="60" as="geometry" />
        </mxCell>
        <mxCell id="xJ2xehB1AI7LfLYREDJW-14" value="" style="endArrow=classic;html=1;" edge="1" parent="1">
          <mxGeometry width="50" height="50" relative="1" as="geometry">
            <mxPoint x="340" y="400" as="sourcePoint" />
            <mxPoint x="580" y="400" as="targetPoint" />
          </mxGeometry>
        </mxCell>
        <mxCell id="xJ2xehB1AI7LfLYREDJW-15" value="" style="endArrow=none;dashed=1;html=1;" edge="1" parent="1">
          <mxGeometry width="50" height="50" relative="1" as="geometry">
            <mxPoint x="350" y="560" as="sourcePoint" />
            <mxPoint x="580" y="560" as="targetPoint" />
          </mxGeometry>
        </mxCell>
        <mxCell id="xJ2xehB1AI7LfLYREDJW-16" value="Patient Data" style="text;html=1;strokeColor=none;fillColor=none;align=center;verticalAlign=middle;whiteSpace=wrap;" vertex="1" parent="1">
          <mxGeometry x="410" y="560" width="100" height="20" as="geometry" />
        </mxCell>
        <mxCell id="xJ2xehB1AI7LfLYREDJW-17" value="" style="triangle;whiteSpace=wrap;html=1;direction=west;" vertex="1" parent="1">
          <mxGeometry x="340" y="550" width="10" height="20" as="geometry" />
        </mxCell>
        <mxCell id="xJ2xehB1AI7LfLYREDJW-19" value="[If Authorized]" style="text;html=1;strokeColor=none;fillColor=none;align=center;verticalAlign=middle;whiteSpace=wrap;" vertex="1" parent="1">
          <mxGeometry x="10" y="560" width="110" height="20" as="geometry" />
        </mxCell>
        <mxCell id="xJ2xehB1AI7LfLYREDJW-20" value="[else]" style="text;html=1;strokeColor=none;fillColor=none;align=center;verticalAlign=middle;whiteSpace=wrap;" vertex="1" parent="1">
          <mxGeometry y="450" width="110" height="20" as="geometry" />
        </mxCell>
        <mxCell id="xJ2xehB1AI7LfLYREDJW-21" value="" style="endArrow=none;dashed=1;html=1;" edge="1" parent="1" source="xJ2xehB1AI7LfLYREDJW-23">
          <mxGeometry width="50" height="50" relative="1" as="geometry">
            <mxPoint x="350" y="630" as="sourcePoint" />
            <mxPoint x="580" y="669" as="targetPoint" />
          </mxGeometry>
        </mxCell>
        <mxCell id="xJ2xehB1AI7LfLYREDJW-22" value="Error Message" style="text;html=1;strokeColor=none;fillColor=none;align=center;verticalAlign=middle;whiteSpace=wrap;" vertex="1" parent="1">
          <mxGeometry x="410" y="670" width="100" height="20" as="geometry" />
        </mxCell>
        <mxCell id="xJ2xehB1AI7LfLYREDJW-53" value="" style="endArrow=none;dashed=1;html=1;" edge="1" parent="1">
          <mxGeometry width="50" height="50" relative="1" as="geometry">
            <mxPoint x="780" y="1092" as="sourcePoint" />
            <mxPoint x="780" y="300" as="targetPoint" />
          </mxGeometry>
        </mxCell>
        <mxCell id="xJ2xehB1AI7LfLYREDJW-54" value="Authorization" style="whiteSpace=wrap;html=1;" vertex="1" parent="1">
          <mxGeometry x="710" y="210" width="120" height="60" as="geometry" />
        </mxCell>
        <mxCell id="xJ2xehB1AI7LfLYREDJW-55" value="Check Authorize (RID)" style="html=1;verticalAlign=bottom;endArrow=block;" edge="1" parent="1">
          <mxGeometry x="0.1" width="80" relative="1" as="geometry">
            <mxPoint x="580" y="440" as="sourcePoint" />
            <mxPoint x="780" y="440" as="targetPoint" />
            <mxPoint as="offset" />
          </mxGeometry>
        </mxCell>
        <mxCell id="xJ2xehB1AI7LfLYREDJW-56" value="" style="endArrow=none;dashed=1;html=1;" edge="1" parent="1" source="xJ2xehB1AI7LfLYREDJW-57">
          <mxGeometry width="50" height="50" relative="1" as="geometry">
            <mxPoint x="580" y="470" as="sourcePoint" />
            <mxPoint x="780" y="470" as="targetPoint" />
          </mxGeometry>
        </mxCell>
        <mxCell id="xJ2xehB1AI7LfLYREDJW-57" value="" style="triangle;whiteSpace=wrap;html=1;direction=west;" vertex="1" parent="1">
          <mxGeometry x="580" y="460" width="10" height="20" as="geometry" />
        </mxCell>
        <mxCell id="xJ2xehB1AI7LfLYREDJW-60" value="" style="endArrow=none;dashed=1;html=1;" edge="1" parent="1" target="xJ2xehB1AI7LfLYREDJW-57">
          <mxGeometry width="50" height="50" relative="1" as="geometry">
            <mxPoint x="580" y="470" as="sourcePoint" />
            <mxPoint x="780" y="470" as="targetPoint" />
          </mxGeometry>
        </mxCell>
        <mxCell id="xJ2xehB1AI7LfLYREDJW-61" value="Authentication" style="text;html=1;strokeColor=none;fillColor=none;align=center;verticalAlign=middle;whiteSpace=wrap;rounded=0;" vertex="1" parent="1">
          <mxGeometry x="660" y="480" width="40" height="20" as="geometry" />
        </mxCell>
        <mxCell id="xJ2xehB1AI7LfLYREDJW-23" value="" style="triangle;whiteSpace=wrap;html=1;direction=west;" vertex="1" parent="1">
          <mxGeometry x="340" y="660" width="10" height="20" as="geometry" />
        </mxCell>
        <mxCell id="xJ2xehB1AI7LfLYREDJW-68" value="[Else]" style="text;html=1;strokeColor=none;fillColor=none;align=center;verticalAlign=middle;whiteSpace=wrap;" vertex="1" parent="1">
          <mxGeometry x="10" y="640" width="110" height="20" as="geometry" />
        </mxCell>
        <mxCell id="xJ2xehB1AI7LfLYREDJW-71" value="" style="endArrow=none;html=1;" edge="1" parent="1">
          <mxGeometry width="50" height="50" relative="1" as="geometry">
            <mxPoint x="10" y="620" as="sourcePoint" />
            <mxPoint x="120" y="620" as="targetPoint" />
          </mxGeometry>
        </mxCell>
        <mxCell id="xJ2xehB1AI7LfLYREDJW-72" value="" style="endArrow=none;html=1;" edge="1" parent="1">
          <mxGeometry width="50" height="50" relative="1" as="geometry">
            <mxPoint x="120" y="620" as="sourcePoint" />
            <mxPoint x="340" y="620" as="targetPoint" />
          </mxGeometry>
        </mxCell>
        <mxCell id="xJ2xehB1AI7LfLYREDJW-73" value="" style="endArrow=none;html=1;" edge="1" parent="1">
          <mxGeometry width="50" height="50" relative="1" as="geometry">
            <mxPoint x="340" y="620" as="sourcePoint" />
            <mxPoint x="580" y="620" as="targetPoint" />
          </mxGeometry>
        </mxCell>
        <mxCell id="xJ2xehB1AI7LfLYREDJW-74" value="" style="endArrow=none;html=1;entryX=1.003;entryY=0.526;entryDx=0;entryDy=0;entryPerimeter=0;" edge="1" parent="1" target="xJ2xehB1AI7LfLYREDJW-62">
          <mxGeometry width="50" height="50" relative="1" as="geometry">
            <mxPoint x="580" y="620" as="sourcePoint" />
            <mxPoint x="590" y="630" as="targetPoint" />
          </mxGeometry>
        </mxCell>
      </root>
    </mxGraphModel>
  </diagram>
</mxfile>
